<svg width="48" height="19" viewBox="0 0 48 19" fill="none" xmlns="http://www.w3.org/2000/svg">
<path d="M7.24888 3.02608C7.8358 2.0821 9.20967 2.0821 9.79659 3.02608L11.0561 5.05183C11.2626 5.38396 11.5907 5.6223 11.9703 5.71606L14.2862 6.28794C15.3653 6.55443 15.7899 7.86106 15.0734 8.71095L13.5361 10.5348C13.284 10.8338 13.1587 11.2195 13.1868 11.6096L13.3586 13.9888C13.4386 15.0974 12.3271 15.905 11.2974 15.4863L9.08777 14.5877C8.72548 14.4404 8.31999 14.4404 7.95771 14.5877L5.74803 15.4863C4.71835 15.905 3.60686 15.0974 3.68689 13.9888L3.85863 11.6096C3.88678 11.2195 3.76148 10.8338 3.50942 10.5348L1.97203 8.71095C1.25562 7.86106 1.68017 6.55443 2.75931 6.28794L5.07513 5.71606C5.45481 5.6223 5.78287 5.38396 5.98937 5.05183L7.24888 3.02608Z" fill="#F6C002"/>
<path d="M29.2655 12.0223H27.9155V8.72226H27.1205V12.0223H22.3505L26.3255 4.47726H25.4555L21.4655 12.0223V12.7723H27.1205V14.9773H27.9155V12.7723H29.2655V12.0223ZM31.2491 15.1273C31.6241 15.1273 31.9241 14.8273 31.9241 14.4523C31.9241 14.0773 31.6241 13.7773 31.2491 13.7773C30.8591 13.7773 30.5741 14.0773 30.5741 14.4523C30.5741 14.8273 30.8591 15.1273 31.2491 15.1273ZM38.5675 9.54726C39.4675 9.09726 40.0975 8.25726 40.0975 7.14726C40.0975 5.28726 38.6125 4.31226 36.9625 4.31226C35.3125 4.31226 33.8275 5.28726 33.8275 7.14726C33.8275 8.25726 34.4575 9.09726 35.3575 9.54726C34.2325 9.99726 33.4825 10.9423 33.4825 12.1723C33.4825 14.0773 34.9975 15.1423 36.9625 15.1423C38.9275 15.1423 40.4425 14.0773 40.4425 12.1723C40.4425 10.9423 39.6925 9.99726 38.5675 9.54726ZM34.6225 7.14726C34.6225 5.79726 35.6425 5.07726 36.9625 5.07726C38.2825 5.07726 39.3025 5.79726 39.3025 7.14726C39.3025 8.43726 38.2825 9.20226 36.9625 9.20226C35.6425 9.20226 34.6225 8.43726 34.6225 7.14726ZM36.9625 14.3773C35.3275 14.3773 34.2925 13.5673 34.2925 12.1723C34.2925 10.7923 35.3275 9.98226 36.9625 9.98226C38.5975 9.98226 39.6325 10.7923 39.6325 12.1723C39.6325 13.5673 38.5975 14.3773 36.9625 14.3773Z" fill="#3E4958"/>
</svg>
