<svg width="48" height="19" viewBox="0 0 48 19" fill="none" xmlns="http://www.w3.org/2000/svg">
<path d="M7.24888 3.02608C7.8358 2.0821 9.20967 2.0821 9.79659 3.02608L11.0561 5.05183C11.2626 5.38396 11.5907 5.6223 11.9703 5.71606L14.2862 6.28794C15.3653 6.55443 15.7899 7.86106 15.0734 8.71095L13.5361 10.5348C13.284 10.8338 13.1587 11.2195 13.1868 11.6096L13.3586 13.9888C13.4386 15.0974 12.3271 15.905 11.2974 15.4863L9.08777 14.5877C8.72548 14.4404 8.31999 14.4404 7.95771 14.5877L5.74803 15.4863C4.71835 15.905 3.60686 15.0974 3.68689 13.9888L3.85863 11.6096C3.88678 11.2195 3.76148 10.8338 3.50942 10.5348L1.97203 8.71095C1.25562 7.86106 1.68017 6.55443 2.75931 6.28794L5.07513 5.71606C5.45481 5.6223 5.78287 5.38396 5.98937 5.05183L7.24888 3.02608Z" fill="#F6C002"/>
<path d="M29.2655 12.0223H27.9155V8.72226H27.1205V12.0223H22.3505L26.3255 4.47726H25.4555L21.4655 12.0223V12.7723H27.1205V14.9773H27.9155V12.7723H29.2655V12.0223ZM31.2491 15.1273C31.6241 15.1273 31.9241 14.8273 31.9241 14.4523C31.9241 14.0773 31.6241 13.7773 31.2491 13.7773C30.8591 13.7773 30.5741 14.0773 30.5741 14.4523C30.5741 14.8273 30.8591 15.1273 31.2491 15.1273ZM37.1084 15.1423C39.6284 15.1423 41.0384 12.9673 41.0384 9.72726C41.0384 6.48726 39.6284 4.31226 37.1084 4.31226C34.5884 4.31226 33.1784 6.48726 33.1784 9.72726C33.1784 12.9673 34.5884 15.1423 37.1084 15.1423ZM37.1084 14.3773C35.1584 14.3773 33.9884 12.6673 33.9884 9.72726C33.9884 6.78726 35.1584 5.07726 37.1084 5.07726C39.0584 5.07726 40.2284 6.78726 40.2284 9.72726C40.2284 12.6673 39.0584 14.3773 37.1084 14.3773Z" fill="#3E4958"/>
</svg>
