<svg width="48" height="19" viewBox="0 0 48 19" fill="none" xmlns="http://www.w3.org/2000/svg">
<path d="M7.24888 3.02608C7.8358 2.0821 9.20967 2.0821 9.79659 3.02608L11.0561 5.05183C11.2626 5.38396 11.5907 5.6223 11.9703 5.71606L14.2862 6.28794C15.3653 6.55443 15.7899 7.86106 15.0734 8.71095L13.5361 10.5348C13.284 10.8338 13.1587 11.2195 13.1868 11.6096L13.3586 13.9888C13.4386 15.0974 12.3271 15.905 11.2974 15.4863L9.08777 14.5877C8.72548 14.4404 8.31999 14.4404 7.95771 14.5877L5.74803 15.4863C4.71835 15.905 3.60686 15.0974 3.68689 13.9888L3.85863 11.6096C3.88678 11.2195 3.76148 10.8338 3.50942 10.5348L1.97203 8.71095C1.25562 7.86106 1.68017 6.55443 2.75931 6.28794L5.07513 5.71606C5.45481 5.6223 5.78287 5.38396 5.98937 5.05183L7.24888 3.02608Z" fill="#F6C002"/>
<path d="M25.4105 8.84226L27.9305 5.22726V4.47726H21.8855V5.22726H27.0155L24.3605 8.99226L24.7055 9.51726H24.9305C26.4905 9.51726 27.6305 10.4323 27.6305 11.9473C27.6305 13.4623 26.4905 14.3773 24.9605 14.3773C23.6405 14.3773 22.6655 13.8073 22.2755 12.7573L21.6155 13.1473C22.1255 14.4373 23.4305 15.1423 24.9605 15.1423C26.8205 15.1423 28.4255 13.9723 28.4255 11.9473C28.4255 10.1023 27.0755 9.00726 25.4105 8.84226ZM30.4434 15.1273C30.8184 15.1273 31.1184 14.8273 31.1184 14.4523C31.1184 14.0773 30.8184 13.7773 30.4434 13.7773C30.0534 13.7773 29.7684 14.0773 29.7684 14.4523C29.7684 14.8273 30.0534 15.1273 30.4434 15.1273ZM37.7618 9.54726C38.6618 9.09726 39.2918 8.25726 39.2918 7.14726C39.2918 5.28726 37.8068 4.31226 36.1568 4.31226C34.5068 4.31226 33.0218 5.28726 33.0218 7.14726C33.0218 8.25726 33.6518 9.09726 34.5518 9.54726C33.4268 9.99726 32.6768 10.9423 32.6768 12.1723C32.6768 14.0773 34.1918 15.1423 36.1568 15.1423C38.1218 15.1423 39.6368 14.0773 39.6368 12.1723C39.6368 10.9423 38.8868 9.99726 37.7618 9.54726ZM33.8168 7.14726C33.8168 5.79726 34.8368 5.07726 36.1568 5.07726C37.4768 5.07726 38.4968 5.79726 38.4968 7.14726C38.4968 8.43726 37.4768 9.20226 36.1568 9.20226C34.8368 9.20226 33.8168 8.43726 33.8168 7.14726ZM36.1568 14.3773C34.5218 14.3773 33.4868 13.5673 33.4868 12.1723C33.4868 10.7923 34.5218 9.98226 36.1568 9.98226C37.7918 9.98226 38.8268 10.7923 38.8268 12.1723C38.8268 13.5673 37.7918 14.3773 36.1568 14.3773Z" fill="#3E4958"/>
</svg>
