<svg width="15" height="14" viewBox="0 0 15 14" fill="none" xmlns="http://www.w3.org/2000/svg">
<path d="M6.24888 1.02608C6.8358 0.0821038 8.20967 0.0821048 8.79659 1.02608L10.0561 3.05183C10.2626 3.38396 10.5907 3.6223 10.9703 3.71606L13.2862 4.28794C14.3653 4.55443 14.7899 5.86106 14.0734 6.71095L12.5361 8.53482C12.284 8.83385 12.1587 9.21949 12.1868 9.60957L12.3586 11.9888C12.4386 13.0974 11.3271 13.905 10.2974 13.4863L8.08777 12.5877C7.72548 12.4404 7.31999 12.4404 6.95771 12.5877L4.74803 13.4863C3.71835 13.905 2.60686 13.0974 2.68689 11.9888L2.85863 9.60957C2.88678 9.21949 2.76148 8.83385 2.50942 8.53482L0.972025 6.71095C0.255622 5.86106 0.680173 4.55443 1.75931 4.28794L4.07513 3.71606C4.45481 3.6223 4.78287 3.38396 4.98937 3.05183L6.24888 1.02608Z" fill="#F6C002"/>
</svg>
